<svg width="18" height="18" viewBox="0 0 18 18" fill="none" xmlns="http://www.w3.org/2000/svg">
<path d="M1 4.16V2.5C1 1.67157 1.67157 1 2.5 1H15.5C16.3284 1 17 1.67157 17 2.5V15.5C17 16.3284 16.3284 17 15.5 17H2.5C1.67157 17 1 16.3284 1 15.5V13.84M1 9H9.36"  stroke-width="1.5" stroke-linecap="round"/>
<path d="M12.7614 8.77963C12.89 8.89841 12.89 9.10159 12.7614 9.22037L9.75357 11.9989C9.56142 12.1764 9.25 12.0401 9.25 11.7786L9.25 6.22144C9.25 5.95986 9.56142 5.82358 9.75357 6.00107L12.7614 8.77963Z" />
</svg>
