<svg width="20" height="18" viewBox="0 0 20 18" fill="none" xmlns="http://www.w3.org/2000/svg">
<path d="M3 4.16V2.5C3 1.67157 3.67157 1 4.5 1H17.5C18.3284 1 19 1.67157 19 2.5V15.5C19 16.3284 18.3284 17 17.5 17H4.5C3.67157 17 3 16.3284 3 15.5V13.84M3 9H11.36" stroke-width="3.5" stroke-linecap="round"/>
<path d="M0.238553 9.22037C0.109973 9.10159 0.109974 8.89841 0.238553 8.77963L3.24643 6.00107C3.43858 5.82358 3.75 5.95986 3.75 6.22144L3.75 11.7786C3.75 12.0401 3.43858 12.1764 3.24643 11.9989L0.238553 9.22037Z" fill="#79798B"/>
</svg>
