<svg width="16" height="16" viewBox="0 0 16 16" fill="none" xmlns="http://www.w3.org/2000/svg">
<rect width="16" height="16" fill="none"/>
<path fill-rule="evenodd" clip-rule="evenodd" d="M2 12.4601C2 12.2502 2.16625 12.0801 2.37134 12.0801H13.6287C13.8337 12.0801 14 12.2502 14 12.4601C14 12.6699 13.8337 12.8401 13.6287 12.8401H2.37134C2.16625 12.8401 2 12.6699 2 12.4601Z" fill="currentColor"/>
<path fill-rule="evenodd" clip-rule="evenodd" d="M2.70333 7.42004C2.70333 4.42663 5.07461 2 7.99974 2C10.9249 2 13.2962 4.42663 13.2962 7.42004V12.4601C13.2962 12.6699 13.1299 12.8401 12.9248 12.8401H3.07466C2.86958 12.8401 2.70333 12.6699 2.70333 12.4601V7.42004ZM7.99974 2.76001C5.48478 2.76001 3.446 4.84637 3.446 7.42004V12.0801H12.5535V7.42004C12.5535 4.84637 10.5147 2.76001 7.99974 2.76001Z" fill="currentColor"/>
<path fill-rule="evenodd" clip-rule="evenodd" d="M6.45955 12.2697C6.52592 12.1523 6.64843 12.08 6.78098 12.08H9.21883C9.35138 12.08 9.47389 12.1523 9.54026 12.2697C9.69179 12.5378 9.77841 12.8491 9.77841 13.18C9.77841 14.1852 8.98214 15 7.9999 15C7.01767 15 6.2214 14.1852 6.2214 13.18C6.2214 12.8491 6.30801 12.5378 6.45955 12.2697ZM7.01839 12.84C6.98319 12.9465 6.96407 13.0607 6.96407 13.18C6.96407 13.7654 7.42783 14.24 7.9999 14.24C8.57198 14.24 9.03574 13.7654 9.03574 13.18C9.03574 13.0607 9.01662 12.9465 8.98142 12.84H7.01839Z" fill="currentColor"/>
</svg>
