<svg width="17" height="18" viewBox="0 0 17 18" fill="none" xmlns="http://www.w3.org/2000/svg">
<path d="M0.5 14.1579H15.6579" stroke="#0F3F62" stroke-linecap="round" stroke-linejoin="round"/>
<path d="M1.44702 7.52635C1.44702 3.86383 4.41608 0.894775 8.0786 0.894775V0.894775C11.7411 0.894775 14.7102 3.86383 14.7102 7.52635V14.1579H1.44702V7.52635Z" stroke="#0F3F62" stroke-linecap="round" stroke-linejoin="round"/>
<path d="M6.43755 14.1578V13.6578C6.25907 13.6578 6.09411 13.753 6.00474 13.9075L6.43755 14.1578ZM9.72009 14.1578L10.1529 13.9075C10.0635 13.753 9.89857 13.6578 9.72009 13.6578V14.1578ZM6.68408 15.1052C6.68408 14.8503 6.75199 14.6128 6.87036 14.4082L6.00474 13.9075C5.8007 14.2602 5.68408 14.6698 5.68408 15.1052H6.68408ZM8.07882 16.4999C7.30853 16.4999 6.68408 15.8755 6.68408 15.1052H5.68408C5.68408 16.4278 6.75624 17.4999 8.07882 17.4999V16.4999ZM9.47356 15.1052C9.47356 15.8755 8.84911 16.4999 8.07882 16.4999V17.4999C9.4014 17.4999 10.4736 16.4278 10.4736 15.1052H9.47356ZM9.28728 14.4082C9.40565 14.6128 9.47356 14.8503 9.47356 15.1052H10.4736C10.4736 14.6698 10.3569 14.2602 10.1529 13.9075L9.28728 14.4082ZM9.72009 13.6578H6.43755V14.6578H9.72009V13.6578Z" fill="#0F3F62"/>
</svg>
